<svg width="32" height="32" viewBox="0 0 32 32" fill="none" xmlns="http://www.w3.org/2000/svg">
<path d="M16 1.7793C16.725 1.77936 17.436 1.97752 18.0576 2.35059L18.0586 2.34961L22.0586 4.75H22.0596C22.6498 5.10463 23.1387 5.60621 23.4785 6.20508C23.8183 6.80411 23.9984 7.48123 24 8.16992V13.2441L28.7266 16.084L28.9434 16.2236C29.4371 16.5654 29.8481 17.0149 30.1455 17.5391C30.4854 18.1382 30.6655 18.815 30.667 19.5039V23.8301C30.6654 24.5187 30.4852 25.195 30.1455 25.7939C29.8056 26.3931 29.317 26.8952 28.7266 27.25H28.7256L24.7256 29.6504L24.7246 29.6494C24.1496 29.9945 23.4983 30.1874 22.8301 30.2148C22.7766 30.2214 22.7223 30.2265 22.667 30.2266C22.6112 30.2266 22.556 30.2215 22.502 30.2148C21.8338 30.1872 21.1822 29.9946 20.6074 29.6494L16 26.8867L11.3926 29.6504L11.3916 29.6494C10.8167 29.9945 10.1652 30.1873 9.49707 30.2148C9.44334 30.2214 9.38852 30.2266 9.33301 30.2266C9.27739 30.2265 9.22277 30.2215 9.16895 30.2148C8.50079 30.1873 7.8492 29.9946 7.27441 29.6494V29.6504L3.27441 27.25H3.27344C2.683 26.8953 2.19437 26.3931 1.85449 25.7939C1.51481 25.195 1.33558 24.5186 1.33398 23.8301V19.5039C1.33549 18.8151 1.51464 18.1382 1.85449 17.5391C2.19432 16.94 2.68312 16.4387 3.27344 16.084L8 13.2451V8.16992C8.00159 7.48123 8.18071 6.80411 8.52051 6.20508C8.86034 5.6061 9.34916 5.1047 9.93945 4.75H9.94043L13.9404 2.34961C14.5623 1.97621 15.2747 1.77936 16 1.7793ZM10.666 22.7549V26.9766L14.667 24.5771V20.3545L10.666 22.7549ZM17.334 24.5771L21.334 26.9766V22.7549L17.334 20.3545V24.5771ZM24 22.7539V26.9756L27.3545 24.9629C27.5508 24.8447 27.7131 24.6778 27.8262 24.4785C27.9389 24.2798 27.9989 24.0556 28 23.8271V20.3486L24 22.7539ZM4 23.8242L4.01172 23.9951C4.03408 24.1646 4.08896 24.3289 4.17383 24.4785C4.28698 24.6779 4.45004 24.8447 4.64648 24.9629L8 26.9746V22.7529L4 20.3486V23.8242ZM5.26465 17.998L9.33301 20.4443L13.4062 17.999L9.33301 15.5547L5.26465 17.998ZM18.5918 17.999L22.666 20.4443L26.7354 17.998L22.666 15.5547L18.5918 17.999ZM10.666 13.2441L14.667 15.6436V11.4199L10.666 9.01465V13.2441ZM17.333 11.4189V15.6426L21.333 13.2441V9.01465L17.333 11.4189ZM16 4.44531C15.7584 4.44537 15.5206 4.51139 15.3135 4.63574L15.3125 4.63672L11.9307 6.66406L15.999 9.11035L20.0674 6.66406L16.6875 4.63672L16.6865 4.63574C16.4793 4.51134 16.2417 4.44537 16 4.44531Z" fill="#1878DC"/>
</svg>
