<svg xmlns="http://www.w3.org/2000/svg" viewBox="0 0 200 60" width="200" height="60" role="img" aria-label="Knowledge Hub">
  <!-- Hub node -->
  <circle cx="100" cy="11" r="6" fill="#4f46e5"/>
  <line x1="100" y1="17" x2="100" y2="24" stroke="#4f46e5" stroke-width="2"/>
  <line x1="100" y1="11" x2="84" y2="5"  stroke="#4f46e5" stroke-width="1.5" stroke-linecap="round"/>
  <line x1="100" y1="11" x2="116" y2="5" stroke="#4f46e5" stroke-width="1.5" stroke-linecap="round"/>
  <circle cx="81" cy="4"  r="3" fill="none" stroke="#4f46e5" stroke-width="1.5"/>
  <circle cx="119" cy="4" r="3" fill="none" stroke="#4f46e5" stroke-width="1.5"/>

  <!-- Open book -->
  <path d="M62 26 Q81 22 100 26 Q119 22 138 26 L138 50 Q119 46 100 50 Q81 46 62 50 Z"
        fill="#4f46e5" opacity="0.12"/>
  <path d="M100 26 L100 50" stroke="#4f46e5" stroke-width="1.5"/>
  <path d="M62 26 Q81 22 100 26 L100 50 Q81 46 62 50 Z"
        fill="none" stroke="#4f46e5" stroke-width="2" stroke-linejoin="round"/>
  <path d="M138 26 Q119 22 100 26 L100 50 Q119 46 138 50 Z"
        fill="none" stroke="#4f46e5" stroke-width="2" stroke-linejoin="round"/>

  <!-- Text -->
  <text x="100" y="58" font-family="system-ui, sans-serif" font-size="7" font-weight="600"
        fill="#4f46e5" text-anchor="middle" letter-spacing="2">KNOWLEDGE HUB</text>
</svg>
